<svg viewBox="0 0 24 24" fill="none" xmlns="http://www.w3.org/2000/svg"><path d="M22.9995 3.00127C22.0419 3.67674 20.9816 4.19338 19.8595 4.53127C19.2573 3.83878 18.4568 3.34796 17.5665 3.12519C16.6762 2.90243 15.739 2.95846 14.8816 3.28572C14.0242 3.61298 13.288 4.19567 12.7725 4.95498C12.257 5.7143 11.9872 6.6136 11.9995 7.53127V8.53127C10.2421 8.57683 8.50079 8.18708 6.93052 7.39671C5.36026 6.60635 4.00983 5.4399 2.99951 4.00127C2.99951 4.00127 -1.00049 13.0013 7.99951 17.0013C5.94004 18.3992 3.48667 19.1002 0.999512 19.0013C9.99951 24.0013 20.9995 19.0013 20.9995 7.50127C20.9986 7.22272 20.9718 6.94486 20.9195 6.67127C21.9401 5.66476 22.6603 4.39398 22.9995 3.00127Z" fill="white"></path></svg>