<svg width="38" height="14" viewBox="0 0 38 14" fill="none" xmlns="http://www.w3.org/2000/svg"><g clip-path="url(#clip0_756_203)"><path d="M19.6508 4.5089C19.628 6.45334 21.1752 7.53494 22.3398 8.18511C23.5388 8.84744 23.9384 9.26671 23.9327 9.8622C23.927 10.7676 22.9793 11.1625 22.0944 11.1808C20.5529 11.2112 19.6566 10.7068 18.9429 10.3301L18.3891 13.2832C19.1028 13.6599 20.4273 13.9881 21.7975 14.0002C25.0231 14.0002 27.1355 12.1895 27.1469 9.38216C27.1584 5.82747 22.8137 5.62695 22.8422 4.03494C22.8537 3.5549 23.259 3.03841 24.1496 2.90473C24.5892 2.83789 25.7996 2.78928 27.1755 3.51237L27.7178 0.650391C26.9757 0.346571 26.0279 0.0488281 24.8404 0.0488281C21.8032 0.0488281 19.668 1.8839 19.6508 4.5089ZM32.9017 0.29796C32.3137 0.29796 31.817 0.686849 31.5944 1.28841L26.9871 13.7936H30.207L30.8522 11.7763H34.7858L35.1626 13.7936H38L35.5222 0.29796H32.9017ZM33.3528 3.94379L34.2776 9.0115H31.7314L33.3528 3.94379ZM15.7458 0.29796L13.2052 13.7936H16.2767L18.8173 0.29796H15.7458ZM11.2013 0.29796L8.00992 9.48546L6.71394 1.67122C6.5598 0.8023 5.96605 0.29796 5.29808 0.29796H0.0742187L0 0.692925C1.07332 0.95421 2.28936 1.38563 3.03155 1.84136C3.48257 2.12088 3.60817 2.36393 3.75661 3.02626L6.20583 13.7936H9.45433L14.427 0.29796H11.2013Z" fill="white"></path></g><defs><clipPath id="clip0_756_203"><rect width="38" height="14" fill="white"></rect></clipPath></defs></svg>