<svg viewBox="0 0 97 34" fill="none" xmlns="http://www.w3.org/2000/svg"><path d="M4.82405 32.8946C3.18316 32.1747 1.97266 31.3126 1.20153 30.3083C0.385565 29.3573 0 28.5397 0 27.8198C0 27.482 0.098633 27.2421 0.340732 27.0554C0.537998 26.8599 0.771131 26.771 1.06703 26.771H5.02132C5.26342 26.771 5.50552 26.9132 5.69382 27.1532C5.83728 27.2954 6.22285 27.5798 6.80568 28.0597C7.33471 28.5397 8.01618 28.9218 8.73351 29.1618C9.4598 29.4462 10.2309 29.5884 11.1007 29.5884C12.4009 29.5884 13.4141 29.3484 14.239 28.8241C15.064 28.3441 15.4495 27.6242 15.4495 26.7177C15.4495 26.0955 15.2523 25.5712 14.9205 25.1357C14.5349 24.7535 13.8624 24.3713 12.9389 24.0336C11.9705 23.6959 10.5268 23.367 8.64384 22.9315C5.89108 22.3538 3.90945 21.4917 2.60929 20.3008C1.30016 19.1098 0.627665 17.5811 0.627665 15.6169C0.627665 14.3282 1.01323 13.1284 1.78436 11.9819C2.55549 10.8798 3.71219 9.91992 5.26342 9.20891C6.76085 8.489 8.59901 8.16016 10.7151 8.16016C12.8851 8.16016 14.7681 8.49789 16.3641 9.16447C17.9602 9.88437 19.1617 10.6932 19.9866 11.653C20.8116 12.6129 21.1971 13.475 21.1971 14.186C21.1971 14.4704 21.0985 14.7104 20.9102 14.9059C20.6681 15.1459 20.426 15.2437 20.1391 15.2437H16.5166C16.1758 15.2437 15.8889 15.1015 15.6916 14.8615C15.4495 14.7193 15.1088 14.3815 14.6336 13.9549C14.1045 13.5283 13.5755 13.1906 12.9478 12.9506C12.3202 12.7107 11.5939 12.5685 10.7241 12.5685C9.5136 12.5685 8.59901 12.8084 7.97134 13.3328C7.34368 13.8572 7.00295 14.5326 7.00295 15.3414C7.00295 15.9191 7.14641 16.3902 7.48714 16.7812C7.77408 17.1634 8.40174 17.5011 9.3253 17.83C10.2399 18.1677 11.6387 18.5499 13.5217 18.8787C19.3141 19.9808 22.2104 22.5138 22.2104 26.3888C22.2104 28.6374 21.242 30.5038 19.2693 31.8903C17.2877 33.2768 14.4901 33.9967 10.9662 33.9967C8.50037 33.9967 6.47391 33.6145 4.82405 32.8946Z" fill="#fff"></path><path d="M26.1751 33.2089C25.9341 32.972 25.8359 32.7352 25.8359 32.4019V1.13152C25.8359 0.798206 25.9341 0.517518 26.1751 0.280688C26.4161 0.0877149 26.6571 0 26.9962 0H31.0304C31.3696 0 31.6552 0.0964864 31.8962 0.280688C32.0925 0.517518 32.1818 0.798206 32.1818 1.13152V32.4019C32.1818 32.7352 32.0836 32.972 31.8962 33.2089C31.6552 33.4457 31.3696 33.5422 31.0304 33.5422H26.9962C26.6571 33.5334 26.4161 33.4369 26.1751 33.2089Z" fill="#fff"></path><path d="M37.0507 33.1973C36.8121 32.9579 36.7148 32.7186 36.7148 32.3817V10.6631C36.7148 10.3262 36.8121 10.0426 37.0507 9.8032C37.2893 9.60818 37.528 9.51953 37.8638 9.51953H41.9117C42.2476 9.51953 42.4862 9.61704 42.7248 9.85639C42.9634 10.0957 43.0607 10.3351 43.0607 10.6719V32.3906C43.0607 32.7274 42.9634 32.9668 42.7248 33.2061C42.4862 33.4455 42.2476 33.543 41.9117 33.543H37.8638C37.5191 33.5253 37.2893 33.4277 37.0507 33.1973Z" fill="#fff"></path><path d="M38.2507 4.49029C39.4781 5.63586 41.1803 6.34662 43.0617 6.34662V0H36.2618C36.2528 1.75598 37.0144 3.33636 38.2507 4.49029Z" fill="#fff"></path><path d="M50.105 31.1064C47.9847 29.178 46.8754 26.5515 46.7322 23.1659L46.6875 21.2899L46.7322 19.4138C46.8754 16.0282 47.9847 13.4018 50.105 11.4734C52.1806 9.54499 55.0166 8.61133 58.5326 8.61133C61.0823 8.61133 63.2026 9.03017 64.9919 9.92892C66.7275 10.8189 68.0247 11.8573 68.8925 13.1226C69.7156 14.3878 70.1898 15.6094 70.2434 16.7874C70.2882 17.119 70.1987 17.3546 69.9571 17.5902C69.7156 17.8257 69.4293 17.9217 69.0893 17.9217H64.804C64.464 17.9217 64.1778 17.8257 64.0346 17.6861C63.8915 17.5465 63.6947 17.3109 63.5515 16.9357C63.0684 15.7577 62.4422 14.8677 61.6728 14.3529C60.8497 13.8381 59.8387 13.5501 58.6399 13.5501C57.0027 13.5501 55.7502 14.0649 54.8377 15.0509C53.9252 16.037 53.3884 17.5902 53.3436 19.6582L53.2989 21.3946L53.3436 22.9478C53.5405 27.0314 55.3208 29.0558 58.6399 29.0558C59.8924 29.0558 60.9034 28.7766 61.6728 28.253C62.4422 27.7382 63.0684 26.8918 63.5515 25.6702C63.6947 25.3386 63.8378 25.0594 64.0346 24.9198C64.1778 24.7802 64.464 24.6842 64.804 24.6842H69.0893C69.4293 24.6842 69.7156 24.7802 69.9571 25.0158C70.1987 25.2514 70.2971 25.487 70.2434 25.8186C70.1987 26.9006 69.7156 28.0698 68.8925 29.3438C68.0695 30.609 66.7722 31.7434 65.0366 32.6334C63.301 33.5234 61.136 33.9946 58.5326 33.9946C55.0256 33.9684 52.1806 33.026 50.105 31.1064Z" fill="#fff"></path><path d="M76.807 30.9403C74.7116 28.8791 73.6153 26.0094 73.4739 22.2334L73.4297 21.034C73.4297 17.0626 74.4729 13.9085 76.5683 11.6074C78.6194 9.31516 81.5192 8.16016 85.1883 8.16016C88.9457 8.16016 91.8986 9.30627 93.9497 11.6074C96.0008 13.8996 96.9999 16.9648 96.9999 20.7941V21.7981C96.9999 22.1357 96.9026 22.3756 96.6639 22.6154C96.4252 22.8553 96.1423 22.9531 95.8063 22.9531H79.9897V23.3351C80.0339 25.1031 80.5644 26.5869 81.4662 27.733C82.368 28.9324 83.6057 29.501 85.1794 29.501C86.9918 29.501 88.4683 28.7814 89.6088 27.2976C89.8917 26.96 90.1304 26.7201 90.2719 26.6313C90.4133 26.5869 90.6962 26.5336 91.0852 26.5336H95.2759C95.5588 26.5336 95.7975 26.6313 96.0362 26.7734C96.2307 26.9156 96.3191 27.1555 96.3191 27.4398C96.3191 28.2039 95.8947 29.1101 94.9841 30.123C94.0823 31.1713 92.7473 32.0865 91.0764 32.8505C89.4143 33.6146 87.4604 33.9966 85.2236 33.9966C81.6607 34.0055 78.8492 33.0016 76.807 30.9403ZM90.4221 18.7951C90.4221 16.9293 89.9447 15.4011 89.043 14.2461C88.0881 13.1444 86.8062 12.5758 85.1883 12.5758C83.5703 12.5758 82.2884 13.1533 81.3778 14.2461C80.476 15.3922 79.9986 16.9293 79.9986 18.7951V18.8928H90.4221V18.7951Z" fill="#fff"></path></svg>