<svg viewBox="0 0 24 24" fill="none" xmlns="http://www.w3.org/2000/svg"><path d="M16.9995 1.99902H6.99951C4.23809 1.99902 1.99951 4.2376 1.99951 6.99902V16.999C1.99951 19.7604 4.23809 21.999 6.99951 21.999H16.9995C19.7609 21.999 21.9995 19.7604 21.9995 16.999V6.99902C21.9995 4.2376 19.7609 1.99902 16.9995 1.99902Z" fill="white"></path><path d="M15.9992 11.3654C16.1226 12.1977 15.9805 13.0476 15.593 13.7944C15.2055 14.5412 14.5924 15.1468 13.8408 15.5251C13.0893 15.9034 12.2377 16.035 11.407 15.9014C10.5763 15.7677 9.80898 15.3755 9.21406 14.7806C8.61914 14.1857 8.22695 13.4183 8.09329 12.5876C7.95962 11.757 8.09128 10.9053 8.46955 10.1538C8.84781 9.40227 9.4534 8.78916 10.2002 8.40166C10.947 8.01416 11.797 7.87201 12.6292 7.99542C13.4781 8.1213 14.2641 8.51688 14.8709 9.12373C15.4778 9.73057 15.8733 10.5165 15.9992 11.3654Z" stroke="#E3A0FF" stroke-width="2" stroke-linecap="round" stroke-linejoin="round"></path><path d="M17.4995 6.49902H17.5095" stroke="#E3A0FF" stroke-width="2" stroke-linecap="round" stroke-linejoin="round"></path></svg>