<svg width="49" height="19" viewBox="0 0 49 19" fill="none" xmlns="http://www.w3.org/2000/svg"><g clip-path="url(#clip0_756_216)"><path d="M33.2517 10.7706L33.7343 10.9183C33.7022 11.0577 33.6539 11.1726 33.5815 11.2628C33.5091 11.353 33.4287 11.4269 33.3241 11.4679C33.2195 11.5171 33.0908 11.5417 32.9299 11.5417C32.7368 11.5417 32.584 11.5171 32.4553 11.4597C32.3346 11.4023 32.23 11.3038 32.1415 11.1562C32.053 11.0167 32.0048 10.8281 32.0048 10.6066C32.0048 10.3113 32.0852 10.0816 32.2381 9.91756C32.3909 9.75351 32.6161 9.67969 32.8977 9.67969C33.123 9.67969 33.2919 9.7289 33.4206 9.81913C33.5493 9.90936 33.6459 10.0488 33.7022 10.2457L33.2195 10.3523C33.2034 10.2949 33.1873 10.2539 33.1632 10.2293C33.131 10.1883 33.0988 10.1554 33.0506 10.1308C33.0023 10.1062 32.954 10.098 32.9058 10.098C32.7851 10.098 32.6886 10.1472 32.6242 10.2539C32.5759 10.3277 32.5518 10.4507 32.5518 10.6066C32.5518 10.8035 32.584 10.9429 32.6403 11.0167C32.6966 11.0906 32.7851 11.1316 32.8897 11.1316C32.9942 11.1316 33.0747 11.0988 33.123 11.0413C33.1873 10.9675 33.2275 10.8855 33.2517 10.7706Z" fill="#225E63"></path><path d="M33.9274 10.6065C33.9274 10.3112 34.0079 10.0815 34.1688 9.91747C34.3297 9.75341 34.5549 9.67139 34.8445 9.67139C35.1422 9.67139 35.3674 9.75342 35.5283 9.90927C35.6892 10.0733 35.7696 10.2948 35.7696 10.5901C35.7696 10.8034 35.7375 10.9756 35.6651 11.1069C35.5927 11.2381 35.4961 11.3447 35.3594 11.4186C35.2307 11.4924 35.0617 11.5334 34.8686 11.5334C34.6675 11.5334 34.5066 11.5006 34.3699 11.435C34.2412 11.3693 34.1366 11.2709 34.0481 11.1233C33.9596 10.9756 33.9274 10.8198 33.9274 10.6065ZM34.4745 10.6065C34.4745 10.787 34.5066 10.9182 34.571 11.0002C34.6354 11.0822 34.7238 11.1233 34.8445 11.1233C34.9652 11.1233 35.0537 11.0822 35.118 11.0084C35.1824 10.9264 35.2146 10.787 35.2146 10.5901C35.2146 10.4178 35.1824 10.2948 35.11 10.221C35.0456 10.1389 34.9491 10.1061 34.8365 10.1061C34.7238 10.1061 34.6354 10.1471 34.571 10.2292C34.5066 10.2948 34.4745 10.426 34.4745 10.6065Z" fill="#225E63"></path><path d="M36.0512 9.7041H36.7672L37.0407 10.8033L37.3142 9.7041H38.0302V11.5087H37.5797V10.1306L37.2337 11.5087H36.8315L36.4856 10.1306V11.5087H36.0351V9.7041H36.0512Z" fill="#225E63"></path><path d="M38.3841 9.7041H39.2931C39.4942 9.7041 39.6391 9.75332 39.7356 9.85175C39.8321 9.95018 39.8804 10.0814 39.8804 10.2619C39.8804 10.4423 39.8241 10.59 39.7195 10.6884C39.6149 10.7951 39.446 10.8443 39.2288 10.8443H38.9311V11.5169H38.3841V9.7041ZM38.9311 10.4752H39.0679C39.1725 10.4752 39.2449 10.4587 39.2931 10.4177C39.3334 10.3767 39.3575 10.3357 39.3575 10.2783C39.3575 10.2209 39.3414 10.1717 39.3012 10.1306C39.261 10.0896 39.1966 10.0732 39.092 10.0732H38.9392V10.4752H38.9311Z" fill="#225E63"></path><path d="M40.17 9.7041H40.7171V11.0657H41.5698V11.5087H40.17V9.7041Z" fill="#225E63"></path><path d="M41.8433 9.7041H42.3903V11.5087H41.8433V9.7041Z" fill="#225E63"></path><path d="M43.8705 11.2051H43.2511L43.1626 11.5004H42.6075L43.2752 9.6958H43.8705L44.5382 11.5004H43.9671L43.8705 11.2051ZM43.7579 10.8196L43.5649 10.1716L43.3718 10.8196H43.7579Z" fill="#225E63"></path><path d="M44.7072 9.7041H45.214L45.8817 10.7048V9.7041H46.3965V11.5087H45.8817L45.222 10.5162V11.5087H44.7072V9.7041Z" fill="#225E63"></path><path d="M46.6379 9.7041H48.3031V10.147H47.748V11.5087H47.201V10.147H46.6459V9.7041H46.6379Z" fill="#225E63"></path><path d="M26.6712 12.4521L28.256 11.9435L27.7412 10.7787C27.3631 11.2627 26.985 11.8861 26.6712 12.4521ZM26.1322 7.12852L23.027 0.0742188L0.29303 1.38665L6.59194 18.9076L18.7151 15.0113C17.9429 13.8793 17.6613 12.5341 18.5542 11.8779C19.5518 11.1396 21.0561 11.9927 22.0134 13.1985C22.9385 11.6236 25.5369 7.95699 26.1322 7.12852Z" fill="#225E63"></path><path d="M22.3188 5.17228C23.268 5.17228 24.0403 4.43404 24.0403 3.51534C24.0403 2.59664 23.268 1.8584 22.3188 1.8584C21.3695 1.8584 20.5972 2.59664 20.5972 3.51534C20.5972 4.42584 21.3695 5.17228 22.3188 5.17228ZM20.911 5.88592H23.7266V13.3914H20.911V5.88592Z" fill="#FEFEFE"></path><path d="M19.5193 8.07589C19.5434 8.08409 19.5595 8.07589 19.5595 8.05128V6.14826C19.5595 6.12365 19.5434 6.09904 19.5193 6.08264C19.5193 6.08264 19.1492 5.83655 18.023 5.77093C17.9667 5.73812 16.9772 5.72992 16.7117 5.77093C12.609 6.10724 12.4561 9.13403 12.4561 9.26528V10.0035C12.4561 10.0937 12.4561 13.1862 16.7117 13.4568C17.13 13.4897 17.9425 13.4568 18.023 13.4568C19.0044 13.4568 19.6802 13.1533 19.6802 13.1533C19.7043 13.1451 19.7204 13.1205 19.7204 13.0959V11.3159C19.7204 11.2913 19.7043 11.2831 19.6882 11.2995C19.6882 11.2995 19.3825 11.5456 18.0471 11.6851C17.669 11.7261 17.484 11.7097 17.3472 11.6851C15.4487 11.357 15.3602 9.9461 15.3602 9.9461C15.3602 9.92149 15.3522 9.88048 15.3522 9.86407V9.3227C15.3522 9.29809 15.3522 9.25707 15.3602 9.24067C15.3602 9.24067 15.4889 7.72317 17.3472 7.55912H18.0471C18.8596 7.66575 19.5193 8.07589 19.5193 8.07589Z" fill="#FEFEFE"></path><path d="M4.63678 13.367C4.63678 13.3916 4.65287 13.408 4.677 13.408H7.42021C7.44434 13.408 7.46043 13.3916 7.46043 13.367V11.1851C7.46043 11.1604 7.47652 11.144 7.50065 11.144C7.50065 11.144 11.885 11.4639 11.885 8.46997C11.885 6.09939 9.1337 5.84511 8.23271 5.88613C8.21662 5.88613 4.677 5.88613 4.677 5.88613C4.65287 5.88613 4.63678 5.90253 4.63678 5.92714V13.367ZM7.41216 9.4789V7.51846H8.08791C8.08791 7.51846 9.0613 7.55947 9.14175 8.2403C9.15784 8.28951 9.15784 8.62582 9.14175 8.64223C9.01304 9.43789 8.16835 9.4789 8.16835 9.4789H7.41216Z" fill="#FEFEFE"></path><path d="M22.3996 17.0128C22.6248 17.0128 22.8018 17.0128 23.0914 16.8816C24.0889 16.3484 27.4596 7.95708 31.0153 5.37324C31.0395 5.35683 31.0636 5.33223 31.0797 5.30762C31.1038 5.27481 31.1038 5.242 31.1038 5.242C31.1038 5.242 31.1038 5.06974 30.5809 5.06974C27.4194 4.97951 24.1292 11.7467 22.3996 14.4208C22.3755 14.4536 22.2628 14.4208 22.2628 14.4208C22.2628 14.4208 21.1044 13.0263 20.0988 12.4932C20.0747 12.485 19.9621 12.444 19.8414 12.4522C19.761 12.4522 19.2944 12.5506 19.0772 12.7803C18.8197 13.0592 18.8278 13.215 18.8278 13.5513C18.8278 13.5759 18.8439 13.6908 18.8761 13.7482C19.1254 14.1911 20.2436 15.766 21.1688 16.6355C21.3055 16.7422 21.5227 17.0128 22.3996 17.0128Z" fill="#2BBC5D"></path><path d="M31.9485 2.83838H34.5791C35.102 2.83838 35.5203 2.9122 35.834 3.05165C36.1558 3.1993 36.4213 3.40436 36.6224 3.66685C36.8316 3.93754 36.9844 4.24924 37.0729 4.60196C37.1694 4.95467 37.2177 5.33199 37.2177 5.73392C37.2177 6.35733 37.1453 6.84129 37.0085 7.1858C36.8718 7.53031 36.6787 7.81741 36.4293 8.05528C36.1799 8.28496 35.9145 8.44081 35.6329 8.52284C35.2468 8.62947 34.8928 8.67869 34.5791 8.67869H31.9485V2.83838ZM33.7183 4.15901V7.34985H34.1527C34.5228 7.34985 34.7882 7.30884 34.9411 7.22681C35.0939 7.14479 35.2226 6.99714 35.3111 6.79207C35.3996 6.58701 35.4479 6.24249 35.4479 5.77494C35.4479 5.15153 35.3513 4.7332 35.1502 4.50352C34.9491 4.27385 34.6273 4.15901 34.1607 4.15901H33.7183Z" fill="#225E63"></path><path d="M37.7084 6.75125L39.3978 6.64461C39.438 6.9235 39.5104 7.13677 39.623 7.28442C39.8081 7.5223 40.0655 7.63714 40.4034 7.63714C40.6528 7.63714 40.8539 7.57972 40.9906 7.45668C41.1274 7.33364 41.1998 7.19419 41.1998 7.03834C41.1998 6.89069 41.1354 6.75125 41.0067 6.62821C40.878 6.50517 40.5723 6.39853 40.0977 6.2919C39.3174 6.11144 38.7703 5.87356 38.4324 5.57826C38.0946 5.28297 37.9337 4.90564 37.9337 4.44629C37.9337 4.1428 38.0222 3.8639 38.1911 3.59322C38.36 3.32253 38.6175 3.11746 38.9634 2.96161C39.3093 2.80576 39.7759 2.73193 40.3712 2.73193C41.1033 2.73193 41.6664 2.87138 42.0445 3.15027C42.4306 3.42916 42.6559 3.87211 42.7283 4.4791L41.055 4.57754C41.0067 4.31505 40.9182 4.12639 40.7734 4.00335C40.6286 3.88031 40.4356 3.82289 40.1862 3.82289C39.977 3.82289 39.8242 3.8639 39.7196 3.95413C39.615 4.04436 39.5667 4.151 39.5667 4.28224C39.5667 4.37247 39.607 4.4627 39.6954 4.53652C39.7759 4.61035 39.977 4.68417 40.2907 4.74979C41.063 4.92205 41.6181 5.09431 41.956 5.26656C42.2939 5.43882 42.5352 5.66029 42.688 5.91457C42.8409 6.16886 42.9133 6.46415 42.9133 6.78406C42.9133 7.16138 42.8087 7.5059 42.6076 7.8176C42.4065 8.1375 42.1169 8.37538 41.7549 8.53943C41.3929 8.70349 40.9263 8.78551 40.3712 8.78551C39.3978 8.78551 38.7221 8.59685 38.344 8.21132C37.9739 7.8258 37.7647 7.34184 37.7084 6.75125Z" fill="#225E63"></path><path d="M43.3638 6.75125L45.0531 6.64461C45.0934 6.9235 45.1658 7.13677 45.2784 7.28442C45.4634 7.5223 45.7208 7.63714 46.0587 7.63714C46.3081 7.63714 46.5092 7.57972 46.646 7.45668C46.7827 7.33364 46.8551 7.19419 46.8551 7.03834C46.8551 6.89069 46.7908 6.75125 46.6621 6.62821C46.5333 6.50517 46.2276 6.39853 45.753 6.2919C44.9727 6.11144 44.4257 5.87356 44.0878 5.57826C43.758 5.28297 43.589 4.90564 43.589 4.44629C43.589 4.1428 43.6775 3.8639 43.8464 3.59322C44.0154 3.32253 44.2728 3.11746 44.6187 2.96161C44.9646 2.80576 45.4312 2.73193 46.0265 2.73193C46.7586 2.73193 47.3217 2.87138 47.6998 3.15027C48.0859 3.42916 48.3112 3.87211 48.3836 4.4791L46.7103 4.57754C46.662 4.31505 46.5736 4.12639 46.4288 4.00335C46.284 3.88031 46.0909 3.82289 45.8415 3.82289C45.6323 3.82289 45.4795 3.8639 45.3749 3.95413C45.2703 4.04436 45.2221 4.151 45.2221 4.28224C45.2221 4.37247 45.2623 4.4627 45.3508 4.53652C45.4312 4.61035 45.6323 4.68417 45.9461 4.74979C46.7184 4.92205 47.2734 5.09431 47.6113 5.26656C47.9492 5.43882 48.1905 5.66029 48.3434 5.91457C48.4962 6.16886 48.5686 6.46415 48.5686 6.78406C48.5686 7.16138 48.464 7.5059 48.2629 7.8176C48.0618 8.1375 47.7722 8.37538 47.4102 8.53943C47.0482 8.70349 46.5816 8.78551 46.0265 8.78551C45.0531 8.78551 44.3774 8.59685 43.9993 8.21132C43.6212 7.8258 43.412 7.34184 43.3638 6.75125Z" fill="#225E63"></path></g><defs><clipPath id="clip0_756_216"><rect width="49" height="19" fill="white"></rect></clipPath></defs></svg>