<svg viewBox="0 0 24 24" fill="none" xmlns="http://www.w3.org/2000/svg"><path d="M15.9995 7.99902C17.5908 7.99902 19.1169 8.63116 20.2422 9.75638C21.3674 10.8816 21.9995 12.4077 21.9995 13.999V20.999H17.9995V13.999C17.9995 13.4686 17.7888 12.9599 17.4137 12.5848C17.0387 12.2097 16.5299 11.999 15.9995 11.999C15.4691 11.999 14.9604 12.2097 14.5853 12.5848C14.2102 12.9599 13.9995 13.4686 13.9995 13.999V20.999H9.99951V13.999C9.99951 12.4077 10.6317 10.8816 11.7569 9.75638C12.8821 8.63116 14.4082 7.99902 15.9995 7.99902Z" fill="white"></path><path d="M5.99951 8.99902H1.99951V20.999H5.99951V8.99902Z" fill="white"></path><path d="M3.99951 5.99902C5.10408 5.99902 5.99951 5.10359 5.99951 3.99902C5.99951 2.89445 5.10408 1.99902 3.99951 1.99902C2.89494 1.99902 1.99951 2.89445 1.99951 3.99902C1.99951 5.10359 2.89494 5.99902 3.99951 5.99902Z" fill="white"></path></svg>